<svg xmlns="http://www.w3.org/2000/svg" width="1024" height="768"><g style="font-style:normal;font-weight:400;font-size:72px;line-height:1;font-family:&quot;Brandmark Sans 24 Spectrum&quot;;font-variant-ligatures:normal;text-align:center;text-anchor:middle"><g aria-label="N"><path fill="#55e979" d="M330.56 342.33h14.544v61.94H330.56zM369.797 342.33h14.545v61.94h-14.545z" class="c1"/><path fill="#03c345" d="M384.342 404.27h-14.545l-39.238-61.94h14.545z" class="c3"/><path fill="#03c345" d="m330.56 342.33 14.544 22.961V342.33zM369.797 404.27h14.545l-14.545-22.961z" class="c2"/></g><path fill="#55e979" d="M426.876 361.59v21.766c0 4.675-3.803 8.478-8.477 8.478s-8.478-3.803-8.478-8.478V361.59h-13.334v21.766c0 12.027 9.785 21.812 21.812 21.812s21.81-9.785 21.81-21.812V361.59h-13.333z" aria-label="u" class="c1"/><g aria-label="t"><path fill="#03c345" d="M451.146 361.942h23.205v10.908h-23.205z" class="c3"/><path fill="#55e979" d="M467.594 405.262c-9.07 0-16.447-7.379-16.447-16.448V346.74h13.333v42.074a3.118 3.118 0 0 0 4.904 2.55l7.697 10.887a16.347 16.347 0 0 1-9.487 3.011z" class="c1"/><path fill="#03c345" d="M451.146 361.942h13.334v10.908h-13.334z" class="c2"/></g><g aria-label="r"><path fill="#55e979" d="M508.451 374.024c.72 0 1.434.089 2.12.265l3.308-12.917a21.899 21.899 0 0 0-5.428-.682c-12.026 0-21.811 9.785-21.811 21.811h13.333c0-4.674 3.804-8.477 8.478-8.477z" class="c1"/><path fill="#03c345" d="M486.64 361.611h13.334v42.657H486.64z" class="c3"/><path fill="#03c345" d="M499.973 382.501v-20.096c-7.827 3.315-13.333 11.075-13.333 20.096" class="c2"/></g><path fill="#55e979" d="M541.871 405.216c-12.275 0-22.262-9.987-22.262-22.263s9.987-22.263 22.262-22.263c12.277 0 22.264 9.987 22.264 22.263s-9.987 22.263-22.264 22.263zm0-31.193c-4.923 0-8.929 4.006-8.929 8.93 0 4.924 4.006 8.93 8.93 8.93 4.924 0 8.93-4.006 8.93-8.93 0-4.924-4.006-8.93-8.93-8.93z" aria-label="o" class="c1"/><g aria-label="g"><path fill="#55e979" d="M594.84 405.216c-12.275 0-22.262-9.987-22.262-22.263s9.987-22.263 22.263-22.263 22.262 9.987 22.262 22.263-9.987 22.263-22.262 22.263zm0-31.193c-4.923 0-8.929 4.006-8.929 8.93 0 4.924 4.006 8.93 8.93 8.93s8.929-4.006 8.929-8.93c0-4.924-4.006-8.93-8.93-8.93z" class="c1"/><path fill="#03c345" d="M594.84 360.69h23.48v13.334h-23.48z" class="c3"/><path fill="#03c345" d="M615.22 374.023c-3.449-7.84-11.28-13.333-20.38-13.333v13.333h20.38z" class="c2"/><path fill="#55e979" d="M594.84 426.806a43.662 43.662 0 0 1-15.89-2.97l4.833-12.426c7.039 2.736 15.076 2.737 22.112 0l4.832 12.427a43.656 43.656 0 0 1-15.886 2.969z" class="c1"/></g><g aria-label="i" transform="matrix(1.25 0 0 1.25 510.788 257.875)"><path fill="#55e979" d="M94.667 83.038h10.667v34.125H94.667z" class="c1"/><circle cx="100" cy="72.691" r="5.991" fill="#03c345" class="c3"/></g><path fill="#55e979" d="M675.114 405.216c-12.276 0-22.263-9.987-22.263-22.263s9.987-22.263 22.263-22.263c7.36 0 14.235 3.632 18.391 9.714l-11.01 7.522a8.938 8.938 0 0 0-7.381-3.903c-4.924 0-8.93 4.006-8.93 8.93 0 4.924 4.006 8.93 8.93 8.93a8.862 8.862 0 0 0 7.172-3.609l10.697 7.96c-4.185 5.624-10.865 8.982-17.869 8.982z" aria-label="c" class="c1"/></g></svg>